# xmcd
#
# Track frame offsets: 
#        150
#        5290
#        8852
#        16012
#        24570
#        34015
#        38350
#        45300
#        54192
#        64925
#        73512
#        78480
#        89420
#        94267
#        104030
#        111852
#        117967
#        127637
#        134227
#        139902
#        147230
#        153197
#        160912
#        166075
#        169667
#        176860
#        185367
#        194830
#        199200
#        206160
#        215059
#        225765
#        234397
#        239352
#        249487
#        254335
#        264102
#        271977
#        278095
#        287760
#        294315
#        300030
#        307395
#        313365
#        332467
#
# Disc length: 4712 seconds
#
# Revision: 0
# Processed by: cddbd v1.5.2PL0 Copyright (c) Steve Scherf et al.
# Submitted via: ExactAudioCopy v1.0b3
#
DISCID=7a12662d
DTITLE=Cedarmont Kids - Cantos Biblicos Infantiles (2005)
DYEAR=2005
DGENRE=Children Spanish
TTITLE0=La Puerta Soy
TTITLE1=Libros del Nuevo Testamento
TTITLE2=Bendice Alma Mía a Dios
TTITLE3=Yo Viviré para que Me Uses
TTITLE4=Pequeño Moisés
TTITLE5=Ho-Ho-Ho-Hosanna
TTITLE6=Que Buenas Noticias
TTITLE7=Quiero Ser un Buen Cristiano
TTITLE8=Cuando Llame, Yo Contestaré
TTITLE9=Dios Mira al Gorrión Caer
TTITLE10=Uno, Dos, Tres, Cuatro
TTITLE11=Cuéntame Historias de Cristo
TTITLE12=Voy a Cantar, Voy a Gritar
TTITLE13=Cristo Ama a los Niños • Canten Todos • Cristo Me Ama
TTITLE14=Hablando con los Angeles
TTITLE15=Pon tu Vista en Cristo
TTITLE16=Libros del Antiguo Testamento
TTITLE17=Tan Solo Creé 
TTITLE18=Pronto es Que Veremos al Rey
TTITLE19=Todo Lo Que es Hermoso
TTITLE20=No Me Moverán
TTITLE21=Estad Quietos, Conoced que Yo Soy Dios
TTITLE22=La Puerta Soy [SPLIT TRAX]
TTITLE23=Libros del Nuevo Testamento [SPLIT TRAX]
TTITLE24=Bendice Alma Mía a Dios [SPLIT TRAX]
TTITLE25=Yo Viviré para que Me Uses [SPLIT TRAX]
TTITLE26=Pequeño Moisés [SPLIT TRAX]
TTITLE27=Ho-Ho-Ho-Hosanna [SPLIT TRAX]
TTITLE28=Que Buenas Noticias [SPLIT TRAX]
TTITLE29=Quiero Ser un Buen Cristiano [SPLIT TRAX]
TTITLE30=Cuando Llame, Yo Contestaré [SPLIT TRAX]
TTITLE31=Dios Mira al Gorrión Caer [SPLIT TRAX]
TTITLE32=Uno, Dos, Tres, Cuatro [SPLIT TRAX]
TTITLE33=Cuéntame Historias de Cristo [SPLIT TRAX]
TTITLE34=Voy a Cantar, Voy a Gritar [SPLIT TRAX]
TTITLE35=Cristo Ama a los Niños • Canten Todos • Cristo Me Ama [SPLIT 
TTITLE35=TRAX]
TTITLE36=Hablando con los Angeles [SPLIT TRAX]
TTITLE37=Pon tu Vista en Cristo [SPLIT TRAX]
TTITLE38=Libros del Antiguo Testamento [SPLIT TRAX]
TTITLE39=Tan Solo Creé  [SPLIT TRAX]
TTITLE40=Pronto es Que Veremos al Rey [SPLIT TRAX]
TTITLE41=Todo Lo Que es Hermoso [SPLIT TRAX]
TTITLE42=No Me Moverán [SPLIT TRAX]
TTITLE43=Estad Quietos, Conoced que Yo Soy Dios [SPLIT TRAX]
TTITLE44=Data
EXTD=
EXTT0=
EXTT1=
EXTT2=
EXTT3=
EXTT4=
EXTT5=
EXTT6=
EXTT7=
EXTT8=
EXTT9=
EXTT10=
EXTT11=
EXTT12=
EXTT13=
EXTT14=
EXTT15=
EXTT16=
EXTT17=
EXTT18=
EXTT19=
EXTT20=
EXTT21=
EXTT22=
EXTT23=
EXTT24=
EXTT25=
EXTT26=
EXTT27=
EXTT28=
EXTT29=
EXTT30=
EXTT31=
EXTT32=
EXTT33=
EXTT34=
EXTT35=
EXTT36=
EXTT37=
EXTT38=
EXTT39=
EXTT40=
EXTT41=
EXTT42=
EXTT43=
EXTT44=
PLAYORDER=
